<svg width="32" height="31" viewBox="0 0 32 31" fill="none" xmlns="http://www.w3.org/2000/svg">
<path d="M0.61438 21.0855C2.94924 24.9971 6.63747 28.0073 11.0329 29.4706C11.9926 29.646 12.3423 29.0538 12.3423 28.5451C12.3423 28.3345 12.3387 27.9624 12.334 27.4645C12.3285 26.8877 12.3214 26.1423 12.3164 25.2835C6.98125 26.4421 5.85559 22.7119 5.85559 22.7119C4.98309 20.4971 3.72555 19.9072 3.72555 19.9072C1.98407 18.7168 3.85743 18.7403 3.85743 18.7403C5.78259 18.8769 6.79521 20.7173 6.79521 20.7173C8.50608 23.648 11.2849 22.8014 12.3776 22.3116C12.5519 21.0717 13.0464 20.2263 13.5951 19.747C9.33619 19.2631 4.85827 17.617 4.85827 10.2672C4.85827 8.1737 5.60597 6.46166 6.83289 5.12052C6.63508 4.6354 5.97687 2.68551 7.02011 0.0444462C7.02011 0.0444462 8.63089 -0.471286 12.2952 2.01082C13.8247 1.58575 15.4661 1.37263 17.0969 1.36557C18.7253 1.37263 20.3667 1.58575 21.8986 2.01082C25.5605 -0.471286 27.1678 0.0444462 27.1678 0.0444462C28.2146 2.68551 27.5564 4.6354 27.3585 5.12052C28.5878 6.46166 29.3308 8.1737 29.3308 10.2672C29.3308 17.6358 24.8458 19.2572 20.5728 19.7317C21.2616 20.324 21.8751 21.4944 21.8751 23.2842C21.8751 24.9985 21.8645 26.4916 21.8576 27.4807C21.8541 27.9706 21.8515 28.3368 21.8515 28.5451C21.8515 29.0585 22.1965 29.6555 23.1703 29.4682C26.6718 28.2994 29.7241 26.1495 32 23.3443C28.4834 27.6795 23.1134 30.4502 17.0963 30.4502C10.0903 30.4502 3.96165 26.694 0.61438 21.0855Z" fill="#E0A340"/>
</svg>
