<?xml version="1.0" encoding="UTF-8" standalone="no"?>
<svg
   xmlns:dc="http://purl.org/dc/elements/1.1/"
   xmlns:cc="http://creativecommons.org/ns#"
   xmlns:rdf="http://www.w3.org/1999/02/22-rdf-syntax-ns#"
   xmlns:svg="http://www.w3.org/2000/svg"
   xmlns="http://www.w3.org/2000/svg"
   xmlns:sodipodi="http://sodipodi.sourceforge.net/DTD/sodipodi-0.dtd"
   xmlns:inkscape="http://www.inkscape.org/namespaces/inkscape"
   width="61.400002"
   height="60.450001"
   viewBox="0 0 61.400002 60.450001"
   fill="none"
   version="1.1"
   id="svg4"
   sodipodi:docname="gitGold.svg"
   inkscape:version="1.0.1 (3bc2e813f5, 2020-09-07)">
  <metadata
     id="metadata10">
    <rdf:RDF>
      <cc:Work
         rdf:about="">
        <dc:format>image/svg+xml</dc:format>
        <dc:type
           rdf:resource="http://purl.org/dc/dcmitype/StillImage" />
        <dc:title></dc:title>
      </cc:Work>
    </rdf:RDF>
  </metadata>
  <defs
     id="defs8" />
  <sodipodi:namedview
     pagecolor="#ffffff"
     bordercolor="#666666"
     borderopacity="1"
     objecttolerance="10"
     gridtolerance="10"
     guidetolerance="10"
     inkscape:pageopacity="0"
     inkscape:pageshadow="2"
     inkscape:window-width="1366"
     inkscape:window-height="705"
     id="namedview6"
     showgrid="false"
     inkscape:zoom="2.079937"
     inkscape:cx="-163.25695"
     inkscape:cy="1.3641248"
     inkscape:window-x="-8"
     inkscape:window-y="-8"
     inkscape:window-maximized="1"
     inkscape:current-layer="svg4" />
  <path
     d="m 0.61438,41.859117 c 4.5677098,7.765342 11.783031,13.741217 20.381854,16.646173 1.87747,0.348205 2.561592,-0.827435 2.561592,-1.837311 0,-0.418085 -0.007,-1.156781 -0.01623,-2.145216 -0.01076,-1.145069 -0.02465,-2.624843 -0.03443,-4.329741 C 13.069951,52.493085 10.867811,45.08786 10.867811,45.08786 9.1609307,40.69102 6.7007928,39.519945 6.7007928,39.519945 c -3.4068746,-2.363192 0.2579981,-2.31654 0.2579981,-2.31654 3.7662091,0.27118 5.7472081,3.924758 5.7472081,3.924758 3.346992,5.818051 8.783225,4.137373 10.920885,3.165018 0.340985,-2.46146 1.30838,-4.139756 2.381807,-5.091266 C 17.676943,38.241272 8.9167441,34.973421 8.9167441,20.382534 c 0,-4.156034 1.4627339,-7.554791 3.8629689,-10.217233 -0.386977,-0.9630648 -1.674641,-4.8340033 0.36626,-10.07706594 0,0 3.151185,-1.02383602 10.319711,3.90366224 2.992177,-0.8438526 6.203263,-1.2669403 9.393613,-1.2809559 3.185656,0.014016 6.396743,0.4371033 9.393614,1.2809559 C 49.416723,-0.93560096 52.5611,0.08823506 52.5611,0.08823506 54.608964,5.3312977 53.321321,9.2022362 52.934168,10.165301 c 2.404891,2.662442 3.858429,6.061199 3.858429,10.217233 0,14.628208 -8.774049,17.847026 -17.133362,18.789007 1.347506,1.175839 2.547703,3.499327 2.547703,7.052454 0,3.403243 -0.02074,6.367358 -0.03424,8.330928 -0.0068,0.972554 -0.01193,1.699537 -0.01193,2.113056 0,1.019206 0.674927,2.204376 2.579981,1.832546 6.850019,-2.320312 12.821264,-6.588312 17.27363,-12.157219 C 55.134818,54.949582 44.629434,60.45 32.858122,60.45 19.152215,60.45 7.1626755,52.993159 0.614378,41.859117 Z"
     fill="#e0a340"
     id="path2"
     style="stroke-width:1.9707" />
</svg>
