<svg width="31" height="25" viewBox="0 0 31 25" fill="none" xmlns="http://www.w3.org/2000/svg">
<path fill-rule="evenodd" clip-rule="evenodd" d="M28.8789 1.87737C29.3532 2.42107 29.6949 3.09772 29.8701 3.83994C30.879 8.49505 30.6459 15.8471 29.8897 20.6818C29.7145 21.424 29.3728 22.1007 28.8985 22.6444C28.4242 23.1881 27.8339 23.5799 27.1864 23.7807C24.8162 24.5218 15.2762 24.5218 15.2762 24.5218C15.2762 24.5218 5.73634 24.5218 3.36605 23.7807C2.71858 23.5799 2.12831 23.1881 1.65401 22.6444C1.17972 22.1007 0.837954 21.424 0.66275 20.6818C-0.351967 16.0469 -0.0738 8.69041 0.643163 3.86241C0.818364 3.12019 1.16013 2.44353 1.63443 1.89982C2.10872 1.35612 2.69899 0.964337 3.34646 0.763504C5.71675 0.0224504 15.2567 0 15.2567 0C15.2567 0 24.7966 0 27.1669 0.74104C27.8143 0.941887 28.4046 1.33367 28.8789 1.87737ZM20.1344 12.2609L12.2203 17.5155V7.00621L20.1344 12.2609Z" fill="#E0A340"/>
</svg>
