<?xml version="1.0" encoding="UTF-8" standalone="no"?>
<svg
   xmlns:dc="http://purl.org/dc/elements/1.1/"
   xmlns:cc="http://creativecommons.org/ns#"
   xmlns:rdf="http://www.w3.org/1999/02/22-rdf-syntax-ns#"
   xmlns:svg="http://www.w3.org/2000/svg"
   xmlns="http://www.w3.org/2000/svg"
   xmlns:sodipodi="http://sodipodi.sourceforge.net/DTD/sodipodi-0.dtd"
   xmlns:inkscape="http://www.inkscape.org/namespaces/inkscape"
   width="66"
   height="60.422001"
   viewBox="0 0 66 60.422001"
   fill="none"
   version="1.1"
   id="svg4"
   sodipodi:docname="ytGold.svg"
   inkscape:version="1.0.1 (3bc2e813f5, 2020-09-07)">
  <metadata
     id="metadata10">
    <rdf:RDF>
      <cc:Work
         rdf:about="">
        <dc:format>image/svg+xml</dc:format>
        <dc:type
           rdf:resource="http://purl.org/dc/dcmitype/StillImage" />
        <dc:title></dc:title>
      </cc:Work>
    </rdf:RDF>
  </metadata>
  <defs
     id="defs8" />
  <sodipodi:namedview
     pagecolor="#ffffff"
     bordercolor="#666666"
     borderopacity="1"
     objecttolerance="10"
     gridtolerance="10"
     guidetolerance="10"
     inkscape:pageopacity="0"
     inkscape:pageshadow="2"
     inkscape:window-width="1366"
     inkscape:window-height="705"
     id="namedview6"
     showgrid="false"
     inkscape:zoom="5.1582437"
     inkscape:cx="-35.721096"
     inkscape:cy="28.479782"
     inkscape:window-x="-8"
     inkscape:window-y="-8"
     inkscape:window-maximized="1"
     inkscape:current-layer="svg4" />
  <path
     fill-rule="evenodd"
     clip-rule="evenodd"
     d="m 62.401586,4.6258615 c 1.024868,1.3396831 1.763216,3.0069566 2.141787,4.8357953 2.180034,11.4702452 1.676348,29.5857812 0.04236,41.4985382 -0.378571,1.82879 -1.11692,3.496186 -2.141787,4.83587 -1.024867,1.339683 -2.300388,2.305082 -3.699511,2.799856 C 53.622895,60.422 33.008843,60.422 33.008843,60.422 c 0,0 -20.613748,0 -25.7354761,-1.826079 C 5.8743134,58.101147 4.5988568,57.135748 3.5739884,55.796065 2.5491415,54.456381 1.8106528,52.788985 1.4320717,50.960195 -0.76053087,39.539748 -0.15946704,21.413271 1.3897481,9.5170231 1.7683227,7.6881844 2.5068115,6.0208863 3.5316798,4.6811785 4.5565266,3.3414954 5.8319833,2.3761376 7.2310379,1.8812827 12.352765,0.05531805 32.966709,0 32.966709,0 c 0,0 20.613836,0 25.735585,1.8259312 1.398904,0.4948893 2.674424,1.4602472 3.699292,2.7999303 z M 43.506453,30.211 26.405649,43.158395 V 17.263383 Z"
     fill="#e0a340"
     id="path2"
     style="stroke-width:2.30742" />
</svg>
